<?xml version="1.0" encoding="UTF-8"?>
<svg width="64px" height="64px" viewBox="0 0 64 64" version="1.1" xmlns="http://www.w3.org/2000/svg" xmlns:xlink="http://www.w3.org/1999/xlink">
    <title>FE3025E2-B747-4182-BEEC-6EF117A36455</title>
    <g id="[Design]-Login" stroke="none" stroke-width="1" fill="none" fill-rule="evenodd">
        <g id="reset-password-mail-sent" transform="translate(-688.000000, -332.000000)">
            <g id="mark_as_unread_black_24dp" transform="translate(688.000000, 332.000000)">
                <polygon id="Path" points="0 0 64 0 64 64 0 64"></polygon>
                <path d="M50.2133333,18.6666667 L43.28,18.6666667 L28,10.6666667 L10.6666667,19.7333333 L10.6666667,45.3333333 C7.73333333,45.3333333 5.33333333,42.9333333 5.33333333,40 L5.33333333,19.12 C5.33333333,17.7066667 6.18666667,16.2133333 7.46666667,15.5466667 L28,5.33333333 L48.1066667,15.5466667 C49.2533333,16.16 50.0533333,17.4133333 50.2133333,18.6666667 Z" id="Shape" fill="#337AFF" fill-rule="nonzero" opacity="0.400000006"></path>
                <path d="M53.3333333,21.3333333 C56.2666667,21.3333333 58.6666667,23.7333333 58.6666667,26.6666667 L58.6666667,26.6666667 L58.6666667,50.6666667 C58.6666667,53.6 56.2666667,56 53.3333333,56 L53.3333333,56 L18.6666667,56 C15.7333333,56 13.3333333,53.6 13.3333333,50.6666667 L13.3333333,50.6666667 L13.3333333,26.6666667 C13.3333333,23.7333333 15.7333333,21.3333333 18.6666667,21.3333333 L18.6666667,21.3333333 Z M53.3333333,26.6666667 L36,35.5466667 L18.6666667,26.6666667 L18.6666667,31.12 L36,40 L53.3333333,31.12 L53.3333333,26.6666667 Z" id="Combined-Shape" fill="#337AFF" fill-rule="nonzero"></path>
            </g>
        </g>
    </g>
</svg>