<?xml version="1.0" encoding="utf-8"?>
<!-- Generator: Adobe Illustrator 16.0.3, SVG Export Plug-In . SVG Version: 6.00 Build 0)  -->
<!DOCTYPE svg PUBLIC "-//W3C//DTD SVG 1.1//EN" "http://www.w3.org/Graphics/SVG/1.1/DTD/svg11.dtd">
<svg version="1.1" id="Layer_1" xmlns="http://www.w3.org/2000/svg" xmlns:xlink="http://www.w3.org/1999/xlink" x="0px" y="0px"
	 width="32px" height="32px" viewBox="0 0 64 64" enable-background="new 0 0 64 64" xml:space="preserve">
<path fill="#757575" d="M17.886,34.283c2.721,0.531,5.17,1.805,7.149,3.591l4.079-8.158c-2.721-0.53-5.17-1.803-7.149-3.59
	L17.886,34.283z"/>
<path fill="#757575" d="M42.174,26c-1.958,1.812-4.391,3.119-7.102,3.683l3.827,7.541c1.969-1.798,4.409-3.089,7.125-3.636
	L42.174,26z"/>
<path fill="#F58426" d="M15,34C6.716,34,0,40.715,0,49c0,8.284,6.716,15,15,15c8.284,0,15-6.716,15-15
	c0-4.42-1.923-8.381-4.965-11.125c-1.979-1.787-4.428-3.061-7.149-3.592C16.951,34.102,15.988,34,15,34 M21.411,45.123
	C22.098,46.256,22.5,47.578,22.5,49c0,4.143-3.358,7.5-7.5,7.5S7.5,53.143,7.5,49c0-3.892,2.965-7.091,6.759-7.463
	C14.503,41.514,14.75,41.5,15,41.5C17.721,41.5,20.096,42.953,21.411,45.123"/>
<path fill="#8DC73F" d="M49,33.29c-1.019,0-2.013,0.104-2.975,0.297c-2.717,0.547-5.156,1.838-7.126,3.638
	C35.896,39.967,34,43.902,34,48.29c0,8.284,6.716,15,15,15s15-6.716,15-15S57.284,33.29,49,33.29 M49,55.79
	c-4.142,0-7.5-3.358-7.5-7.5c0-1.405,0.394-2.716,1.066-3.84c1.31-2.188,3.697-3.66,6.434-3.66c0.235,0,0.468,0.015,0.697,0.035
	c3.815,0.353,6.803,3.558,6.803,7.465C56.5,52.432,53.142,55.79,49,55.79"/>
<path fill="#FEC709" d="M47,15c0-8.284-6.716-15-15-15c-8.284,0-15,6.716-15,15c0,4.42,1.923,8.381,4.965,11.126
	c1.979,1.787,4.428,3.06,7.149,3.591C30.049,29.898,31.012,30,32,30c1.053,0,2.081-0.11,3.073-0.317
	c2.711-0.565,5.143-1.871,7.101-3.683C45.135,23.26,47,19.353,47,15 M32.741,22.462C32.497,22.487,32.25,22.5,32,22.5
	c-0.198,0-0.393-0.014-0.587-0.029c-2.474-0.192-4.605-1.583-5.824-3.593C24.903,17.745,24.5,16.42,24.5,15
	c0-4.142,3.358-7.5,7.5-7.5c4.142,0,7.5,3.358,7.5,7.5c0,1.365-0.37,2.641-1.007,3.744C37.313,20.785,35.205,22.221,32.741,22.462"
	/>
</svg>
