<?xml version="1.0" encoding="UTF-8"?>
<svg width="174px" height="108px" viewBox="0 0 174 108" version="1.1" xmlns="http://www.w3.org/2000/svg" xmlns:xlink="http://www.w3.org/1999/xlink">
    <title>D7626D53-16BB-4B02-A245-9A5EF19AA7C2</title>
    <defs>
        <filter id="filter-1">
            <feColorMatrix in="SourceGraphic" type="matrix" values="0 0 0 0 1.000000 0 0 0 0 1.000000 0 0 0 0 1.000000 0 0 0 1.000000 0"></feColorMatrix>
        </filter>
        <polygon id="path-2" points="0 0 173.541 0 173.541 43.97 0 43.97"></polygon>
    </defs>
    <g id="[Design]-Login" stroke="none" stroke-width="1" fill="none" fill-rule="evenodd">
        <g id="potomac-logo" transform="translate(-633.000000, -72.000000)" filter="url(#filter-1)">
            <g transform="translate(633.000000, 72.000000)">
                <g id="Group-10" transform="translate(0.000000, 64.000000)">
                    <mask id="mask-3" fill="white">
                        <use xlink:href="#path-2"></use>
                    </mask>
                    <g id="Clip-2"></g>
                    <polyline id="Fill-1" fill="#27366D" mask="url(#mask-3)" points="71.7385 20.034 71.7385 24.32 61.8985 24.32 61.8985 44 57.6125 44 57.6125 24.32 47.773 24.32 47.773 20.034 71.7385 20.034"></polyline>
                    <path d="M16.046,28.503 C16.8345,28.1595 17.349,27.3715 17.349,26.514 C17.349,25.7255 16.937,25.177 16.6975,24.937 C16.423,24.663 15.9085,24.32 15.1545,24.32 L4.286,24.32 L4.286,28.7425 L15.1545,28.7425 C15.4635,28.7425 15.7715,28.6745 16.046,28.537 L16.046,28.503 Z M19.7145,21.9545 C20.88,23.12 21.6,24.7315 21.6,26.514 C21.6,29.12 20.0575,31.383 17.829,32.4115 C17.246,32.6855 16.629,32.8575 15.9775,32.926 C15.9085,32.926 15.84,32.926 15.7715,32.926 L15.7715,32.96 L4.286,32.96 L4.286,44 L0,44 L0,20 L15.12,20 C16.9025,20 18.5145,20.72 19.6805,21.8855 L19.7145,21.9545 L19.7145,21.9545 Z" id="Fill-3" fill="#27366D" mask="url(#mask-3)"></path>
                    <path d="M42.7525,32 C42.7525,27.7485 39.2895,24.2855 35.038,24.2855 C30.7865,24.2855 27.3235,27.7485 27.3235,32 C27.3235,36.2515 30.7865,39.7145 35.038,39.7145 C39.2895,39.7145 42.7525,36.2515 42.7525,32 Z M47.038,32 C47.038,38.617 41.655,44 35.038,44 C28.421,44 23.038,38.617 23.038,32 C23.038,25.383 28.421,20 35.038,20 C41.655,20 47.038,25.383 47.038,32 L47.038,32 Z" id="Fill-4" fill="#27366D" mask="url(#mask-3)"></path>
                    <path d="M92.1885,32 C92.1885,27.7485 88.725,24.2855 84.474,24.2855 C80.2225,24.2855 76.7595,27.7485 76.7595,32 C76.7595,36.2515 80.2225,39.7145 84.474,39.7145 C88.725,39.7145 92.1885,36.2515 92.1885,32 Z M96.474,32 C96.474,38.617 91.091,44 84.474,44 C77.857,44 72.474,38.617 72.474,32 C72.474,25.383 77.857,20 84.474,20 C91.091,20 96.474,25.383 96.474,32 L96.474,32 Z" id="Fill-5" fill="#27366D" mask="url(#mask-3)"></path>
                    <polyline id="Fill-6" fill="#27366D" mask="url(#mask-3)" points="123.455 20 123.455 44 119.169 44 119.169 28.7085 114.952 31.9315 111.455 34.64 107.958 31.9315 103.7405 28.7085 103.7405 44 99.455 44 99.455 20 103.7405 23.2915 111.455 29.2225 119.169 23.2915 123.455 20"></polyline>
                    <polyline id="Fill-7" fill="#27366D" mask="url(#mask-3)" points="150.4345 44 145.6345 44 143.441 39.7145 138.1945 29.4285 132.949 39.7145 130.755 44 125.9545 44 128.149 39.7145 138.1945 20 148.24 39.7145 150.4345 44"></polyline>
                    <path d="M153.8265,32 C153.8265,36.2515 157.2895,39.7145 161.541,39.7145 L173.541,39.7145 L173.541,44 L161.541,44 C154.924,44 149.541,38.617 149.541,32 C149.541,25.383 154.924,20 161.541,20 L173.541,20 L173.541,24.2855 L161.541,24.2855 C157.2895,24.2855 153.8265,27.7485 153.8265,32" id="Fill-8" fill="#27366D" mask="url(#mask-3)"></path>
                    <path d="M8.0225,4.2515 C8.417,4.08 8.674,3.6855 8.674,3.2575 C8.674,2.863 8.4685,2.5885 8.3485,2.469 C8.2115,2.3315 7.954,2.16 7.577,2.16 L2.1425,2.16 L2.1425,4.3715 L7.577,4.3715 C7.7315,4.3715 7.8855,4.337 8.0225,4.2685 L8.0225,4.2515 Z M9.857,0.977 C10.44,1.56 10.8,2.3655 10.8,3.2575 C10.8,4.56 10.0285,5.6915 8.914,6.2055 C8.6225,6.343 8.314,6.4285 7.9885,6.463 C7.954,6.463 7.92,6.463 7.8855,6.463 L7.8855,6.48 L2.1425,6.48 L2.1425,12 L0,12 L0,0 L7.5595,0 C8.451,0 9.257,0.36 9.84,0.943 L9.857,0.977 L9.857,0.977 Z" id="Fill-9" fill="#2066A3" mask="url(#mask-3)"></path>
                </g>
                <path d="M63.5965,70 C63.5965,67.8745 61.8645,66.1425 59.739,66.1425 C57.6135,66.1425 55.882,67.8745 55.882,70 C55.882,72.1255 57.6135,73.857 59.739,73.857 C61.8645,73.857 63.5965,72.1255 63.5965,70 Z M65.739,70 C65.739,73.3085 63.048,76 59.739,76 C56.4305,76 53.739,73.3085 53.739,70 C53.739,66.6915 56.4305,64 59.739,64 C63.048,64 65.739,66.6915 65.739,70 L65.739,70 Z" id="Fill-11" fill="#2066A3"></path>
                <path d="M92.513,64 L92.513,72.76 C92.513,74.543 91.0555,75.983 89.273,75.983 L83.753,75.983 C81.97,75.983 80.513,74.543 80.513,72.76 L80.513,70.514 L82.656,70.514 L82.656,72.76 C82.656,73.36 83.153,73.857 83.753,73.857 L89.273,73.857 C89.873,73.857 90.37,73.36 90.37,72.76 L90.37,64 L92.513,64" id="Fill-12" fill="#2066A3"></path>
                <path d="M109.598,67.2395 L109.598,68.3545 L117.312,68.3545 L117.312,70.497 L109.598,70.497 L109.598,72.76 C109.598,73.36 110.095,73.857 110.6945,73.857 L119.455,73.857 L119.455,76 L110.6945,76 C108.912,76 107.472,74.543 107.472,72.76 L107.472,67.2395 C107.472,65.457 108.912,64 110.6945,64 L119.455,64 L119.455,66.1425 L110.6945,66.1425 C110.095,66.1425 109.598,66.64 109.598,67.2395" id="Fill-13" fill="#2066A3"></path>
                <path d="M136.6495,70 C136.6495,72.1255 138.381,73.857 140.5065,73.857 L146.5065,73.857 L146.5065,76 L140.5065,76 C137.198,76 134.5065,73.3085 134.5065,70 C134.5065,66.6915 137.198,64 140.5065,64 L146.5065,64 L146.5065,66.1425 L140.5065,66.1425 C138.381,66.1425 136.6495,67.8745 136.6495,70" id="Fill-14" fill="#2066A3"></path>
                <path d="M29.0125,66.16 L34.4465,66.16 C34.8235,66.16 35.081,66.3315 35.218,66.469 C35.338,66.5885 35.544,66.863 35.544,67.2575 C35.544,67.6855 35.2865,68.08 34.892,68.2515 C34.7555,68.32 34.601,68.3545 34.4465,68.3545 L29.0125,68.3715 L29.0125,66.16 Z M29.0125,76 L29.0125,70.497 L31.155,70.497 C31.9265,70.497 32.5955,70.9085 32.9725,71.526 L33.024,71.6285 L34.172,73.8745 L35.261,76 L37.661,76 L36.5725,73.8745 L34.858,70.463 C35.1835,70.4285 35.4925,70.343 35.784,70.2055 C36.898,69.6915 37.6695,68.56 37.6695,67.2575 C37.6695,66.3655 37.3095,65.56 36.7265,64.96 C36.144,64.377 35.338,64.017 34.4465,64.017 L26.8695,64.017 L26.8695,76 L29.0125,76 L29.0125,76 Z" id="Fill-15" fill="#2066A3"></path>
                <polyline id="Fill-16" fill="#2066A3" points="173.541 64.017 173.541 66.16 168.621 66.16 168.621 76 166.478 76 166.478 66.16 161.558 66.16 161.558 64.017 173.541 64.017"></polyline>
                <polyline id="Fill-17" fill="#27366D" points="57.1805 0 57.1805 34.667 74.514 52 74.514 0 57.1805 0"></polyline>
                <polyline id="Fill-18" fill="#27366D" points="99.027 0 74.514 0 91.847 17.3335 74.514 34.667 99.027 34.667 116.3605 17.3335 99.027 0"></polyline>
            </g>
        </g>
    </g>
</svg>