<?xml version="1.0" encoding="UTF-8"?>
<svg width="132px" height="28px" viewBox="0 0 132 28" version="1.1" xmlns="http://www.w3.org/2000/svg" xmlns:xlink="http://www.w3.org/1999/xlink">
    <title>E6205DC3-3DE4-435B-9041-3CBD7C52BA87</title>
    <g id="[Design]-Estimates" stroke="none" stroke-width="1" fill="none" fill-rule="evenodd">
        <g id="Estimate" transform="translate(-80.000000, -26.000000)">
            <g id="logo-horizontal" transform="translate(80.000000, 26.000000)">
                <path d="M9.33342308,0 L9.33342308,28 L0,18.6665769 L0,0 L9.33342308,0 Z M76.9561154,10.7875385 L76.9561154,13.0953846 L71.6573846,13.0953846 L71.6573846,23.6923077 L69.3498077,23.6923077 L69.3498077,13.0953846 L64.0516154,13.0953846 L64.0516154,10.7875385 L76.9561154,10.7875385 Z M46.4689615,10.7692308 C47.4290385,10.7692308 48.2970385,11.1569231 48.9246154,11.7845 L48.9431923,11.8216538 C49.5707692,12.4492308 49.9584615,13.3169615 49.9584615,14.2767692 C49.9584615,15.68 49.1276154,16.8985385 47.9276538,17.4523462 C47.6137308,17.5998846 47.2817692,17.6925 46.9306923,17.7293846 L46.8200385,17.7293846 L46.8200385,17.7293846 L46.8200385,17.7476923 L40.6352692,17.7476923 L40.6352692,23.6923077 L38.3274231,23.6923077 L38.3274231,10.7692308 L46.4689615,10.7692308 Z M57.1940385,10.7692308 C60.7573077,10.7692308 63.6555769,13.6677692 63.6555769,17.2307692 C63.6555769,20.7937692 60.7573077,23.6923077 57.1940385,23.6923077 C53.6313077,23.6923077 50.7325,20.7937692 50.7325,17.2307692 C50.7325,13.6677692 53.6313077,10.7692308 57.1940385,10.7692308 Z M83.8134231,10.7692308 C87.3766923,10.7692308 90.2749615,13.6677692 90.2749615,17.2307692 C90.2749615,20.7937692 87.3766923,23.6923077 83.8134231,23.6923077 C80.2504231,23.6923077 77.3518846,20.7937692 77.3518846,17.2307692 C77.3518846,13.6677692 80.2504231,10.7692308 83.8134231,10.7692308 Z M104.803192,10.7692308 L104.803192,23.6923077 L102.495346,23.6923077 L102.495346,15.4584231 L100.224923,17.1938846 L98.3416538,18.6523077 L96.4586538,17.1938846 L94.1879615,15.4584231 L94.1879615,23.6923077 L91.8801154,23.6923077 L91.8801154,10.7692308 L94.1879615,12.5415769 L98.3416538,15.7351923 L102.495346,12.5415769 L104.803192,10.7692308 Z M112.740115,10.7692308 L118.149231,21.3847308 L119.330615,23.6923077 L116.746538,23.6923077 L115.564885,21.3847308 L112.740115,15.8461154 L109.915615,21.3847308 L108.733962,23.6923077 L106.149077,23.6923077 L107.330731,21.3847308 L112.740115,10.7692308 Z M131.772577,10.7692308 L131.772577,13.0768077 L125.311038,13.0768077 C123.021769,13.0768077 121.157346,14.9415 121.157346,17.2307692 C121.157346,19.5200385 123.021769,21.3847308 125.311038,21.3847308 L131.772577,21.3847308 L131.772577,23.6923077 L125.311038,23.6923077 C121.748308,23.6923077 118.8495,20.7937692 118.8495,17.2307692 C118.8495,13.6677692 121.748308,10.7692308 125.311038,10.7692308 L131.772577,10.7692308 Z M57.1940385,13.0768077 C54.9047692,13.0768077 53.0403462,14.9415 53.0403462,17.2307692 C53.0403462,19.5200385 54.9047692,21.3847308 57.1940385,21.3847308 C59.4833077,21.3847308 61.3482692,19.5200385 61.3482692,17.2307692 C61.3482692,14.9415 59.4833077,13.0768077 57.1940385,13.0768077 Z M83.8134231,13.0768077 C81.5244231,13.0768077 79.6597308,14.9415 79.6597308,17.2307692 C79.6597308,19.5200385 81.5244231,21.3847308 83.8134231,21.3847308 C86.1026923,21.3847308 87.9673846,19.5200385 87.9673846,17.2307692 C87.9673846,14.9415 86.1026923,13.0768077 83.8134231,13.0768077 Z M22.5327308,0 L31.8658846,9.33342308 L22.5327308,18.6665769 L9.33342308,18.6665769 L18.6665769,9.33342308 L9.33342308,0 L22.5327308,0 Z M46.4875385,13.0953846 L40.6352692,13.0953846 L40.6352692,15.4767308 L46.4875385,15.4767308 C46.6539231,15.4767308 46.8200385,15.4401154 46.9675769,15.3660769 L46.9675769,15.3477692 C47.3924231,15.1628077 47.6691923,14.7385 47.6691923,14.2767692 C47.6691923,13.8521923 47.4476154,13.5568462 47.3183846,13.4276154 C47.1705769,13.2800769 46.8938077,13.0953846 46.4875385,13.0953846 Z" id="Combined-Shape" fill="#27366D"></path>
                <path d="M42.3981923,0 C42.8782308,0 43.3119615,0.193846154 43.6258846,0.507769231 L43.6350385,0.526346154 C43.9492308,0.84 44.1428077,1.27373077 44.1428077,1.75376923 C44.1428077,2.45538462 43.7273846,3.06465385 43.1275385,3.34169231 C42.9705769,3.41546154 42.8044615,3.4615 42.6289231,3.48007692 L42.5737308,3.48007692 L42.5737308,3.48007692 L42.5737308,3.48923077 L39.4813462,3.48923077 L39.4813462,6.46153846 L38.3274231,6.46153846 L38.3274231,0 L42.3981923,0 Z M70.4948462,0 C72.2763462,0 73.7256154,1.44926923 73.7256154,3.23076923 C73.7256154,5.01226923 72.2763462,6.46153846 70.4948462,6.46153846 C68.7133462,6.46153846 67.2640769,5.01226923 67.2640769,3.23076923 C67.2640769,1.44926923 68.7133462,0 70.4948462,0 Z M102.649346,0 L102.649346,1.15392308 L97.9326923,1.15392308 C97.6096154,1.15392308 97.342,1.42153846 97.342,1.74461538 L97.342,2.34446154 L101.495423,2.34446154 L101.495423,3.49838462 L97.342,3.49838462 L97.342,4.71692308 C97.342,5.04 97.6096154,5.30761538 97.9326923,5.30761538 L102.649346,5.30761538 L102.649346,6.46153846 L97.9326923,6.46153846 C96.9723462,6.46153846 96.1972308,5.67673077 96.1972308,4.71692308 L96.1972308,1.74461538 C96.1972308,0.784807692 96.9723462,0 97.9326923,0 L102.649346,0 Z M117.215538,0 L117.215538,1.15392308 L113.984769,1.15392308 C112.840269,1.15392308 111.907923,2.08626923 111.907923,3.23076923 C111.907923,4.37526923 112.840269,5.30761538 113.984769,5.30761538 L117.215538,5.30761538 L117.215538,6.46153846 L113.984769,6.46153846 C112.203538,6.46153846 110.754,5.01226923 110.754,3.23076923 C110.754,1.44926923 112.203538,0 113.984769,0 L117.215538,0 Z M56.8758077,0.00915384615 C57.3555769,0.00915384615 57.7895769,0.203 58.1035,0.516923077 C58.4174231,0.84 58.6112692,1.27373077 58.6112692,1.75376923 C58.6112692,2.45538462 58.1958462,3.06465385 57.596,3.34169231 C57.4387692,3.41546154 57.2726538,3.4615 57.0973846,3.48007692 L57.0973846,3.48007692 L58.0203077,5.31703846 L58.6064231,6.46153846 L57.3141154,6.46153846 L56.728,5.31703846 L56.1095769,4.10765385 L56.0818462,4.05219231 C55.8788462,3.71996154 55.5188846,3.49838462 55.1034615,3.49838462 L55.1034615,3.49838462 L53.9495385,3.49838462 L53.9495385,6.46153846 L52.7956154,6.46153846 L52.7956154,0.00915384615 Z M131.772577,0.00915384615 L131.772577,1.16307692 L129.123346,1.16307692 L129.123346,6.46153846 L127.969423,6.46153846 L127.969423,1.16307692 L125.320192,1.16307692 L125.320192,0.00915384615 L131.772577,0.00915384615 Z M88.1423846,0 L88.1423846,4.71692308 C88.1423846,5.67673077 87.3575769,6.45238462 86.3975,6.45238462 L83.4251923,6.45238462 C82.4653846,6.45238462 81.6808462,5.67673077 81.6808462,4.71692308 L81.6808462,3.50753846 L82.8345,3.50753846 L82.8345,4.71692308 C82.8345,5.04 83.1021154,5.30761538 83.4251923,5.30761538 L86.3975,5.30761538 C86.7205769,5.30761538 86.9881923,5.04 86.9881923,4.71692308 L86.9881923,0 L88.1423846,0 Z M70.4948462,1.15392308 C69.3503462,1.15392308 68.4177308,2.08626923 68.4177308,3.23076923 C68.4177308,4.37526923 69.3503462,5.30761538 70.4948462,5.30761538 C71.6393462,5.30761538 72.5719615,4.37526923 72.5719615,3.23076923 C72.5719615,2.08626923 71.6393462,1.15392308 70.4948462,1.15392308 Z M42.4076154,1.16307692 L39.4813462,1.16307692 L39.4813462,2.35388462 L42.4076154,2.35388462 C42.4905385,2.35388462 42.5737308,2.33530769 42.6475,2.29842308 L42.6475,2.28926923 C42.8599231,2.19692308 42.9983077,1.98476923 42.9983077,1.75376923 C42.9983077,1.54161538 42.8873846,1.39380769 42.8227692,1.32919231 C42.749,1.25542308 42.6106154,1.16307692 42.4076154,1.16307692 Z M56.8758077,1.16307692 L53.9495385,1.16307692 L53.9495385,2.35388462 L56.8758077,2.34446154 C56.9587308,2.34446154 57.0419231,2.32615385 57.1156923,2.28926923 C57.3281154,2.19692308 57.4665,1.98476923 57.4665,1.75376923 C57.4665,1.54161538 57.3555769,1.39380769 57.2912308,1.32919231 C57.2171923,1.25542308 57.0788077,1.16307692 56.8758077,1.16307692 L56.8758077,1.16307692 Z" id="Combined-Shape" fill="#2066A3"></path>
            </g>
        </g>
    </g>
</svg>