<?xml version="1.0" standalone="no"?>
<!DOCTYPE svg PUBLIC "-//W3C//DTD SVG 20010904//EN"
 "http://www.w3.org/TR/2001/REC-SVG-20010904/DTD/svg10.dtd">
<svg version="1.0" xmlns="http://www.w3.org/2000/svg"
 width="310.000000pt" height="310.000000pt" viewBox="0 0 310.000000 310.000000"
 preserveAspectRatio="xMidYMid meet">
<metadata>
Created by potrace 1.14, written by Peter Selinger 2001-2017
</metadata>
<g transform="translate(0.000000,310.000000) scale(0.100000,-0.100000)"
fill="#000000" stroke="none">
<path d="M1 2015 c0 -500 4 -919 9 -930 5 -11 9 -17 9 -13 1 8 111 -102 111
-112 0 -3 11 -13 25 -20 13 -7 22 -17 19 -22 -3 -4 -1 -8 4 -8 6 0 30 -20 55
-45 26 -25 44 -45 42 -45 -2 0 11 -15 28 -33 18 -18 34 -33 37 -33 3 0 26 -21
52 -47 26 -26 44 -47 41 -47 -3 0 7 -10 23 -22 42 -32 54 -45 54 -57 0 -5 8
-12 18 -15 11 -4 25 -17 32 -31 7 -13 17 -22 22 -19 4 3 8 -3 8 -12 0 -10 3
-15 6 -12 6 6 54 -38 53 -49 0 -3 13 -15 30 -25 17 -11 31 -26 31 -34 0 -8 7
-14 16 -14 9 0 18 -9 21 -20 3 -11 10 -20 17 -20 6 0 20 -13 31 -29 10 -16 22
-28 26 -26 3 2 16 -9 27 -25 28 -37 58 -54 68 -38 4 7 3 8 -4 4 -7 -4 -12 -1
-12 8 0 8 6 17 12 19 7 3 9 6 3 6 -12 1 -12 132 0 151 5 8 4 11 -2 7 -6 -4
-11 4 -11 18 0 14 5 22 11 18 6 -4 7 -1 2 7 -11 17 -11 173 0 190 5 8 4 11 -2
7 -6 -4 -11 4 -11 18 1 14 5 25 10 25 5 0 6 5 2 12 -9 14 -10 229 -1 252 4 9
3 15 -2 12 -5 -3 -9 6 -9 19 1 14 6 25 12 25 6 0 4 5 -4 10 -13 9 -13 11 0 20
8 5 11 10 5 10 -6 0 -10 34 -10 80 -1 44 3 80 8 80 4 0 5 5 1 12 -11 18 -13
68 -2 68 5 0 6 5 2 12 -11 18 -13 68 -2 68 5 0 6 5 2 12 -12 19 -12 68 -1 68
8 0 8 3 0 11 -7 7 -8 21 -3 40 5 16 5 27 1 24 -5 -2 -9 7 -8 20 0 14 4 25 9
25 5 0 6 5 2 12 -9 14 -10 149 -1 172 4 9 3 15 -2 12 -5 -3 -9 6 -8 19 0 14 4
25 9 25 5 0 6 5 2 12 -9 14 -10 149 -1 172 4 9 3 15 -2 12 -5 -3 -9 6 -9 19 1
14 5 25 10 25 5 0 6 5 2 11 -10 17 -12 109 -1 109 4 0 5 5 1 12 -11 18 -13 68
-2 68 5 0 6 5 2 12 -11 18 -13 68 -2 68 5 0 6 5 2 12 -11 18 -13 68 -2 68 5 0
6 5 2 12 -9 14 -10 109 -1 132 4 9 3 15 -2 12 -5 -3 -8 6 -8 19 0 14 4 25 9
25 5 0 6 5 2 11 -4 6 -7 71 -8 144 0 73 -4 137 -8 141 -11 11 -497 11 -491 0
4 -5 1 -6 -4 -3 -21 13 -84 17 -77 5 4 -7 3 -8 -4 -4 -20 12 -103 16 -96 4 5
-7 2 -8 -6 -3 -20 12 -200 12 -200 0 0 -5 -5 -3 -10 5 -6 10 -10 -304 -9 -895z"/>
<path d="M913 2901 c0 -11 4 -18 8 -15 10 6 160 -142 152 -150 -6 -6 12 -10
30 -7 4 0 7 -5 7 -13 0 -8 7 -17 16 -20 9 -3 12 -11 8 -18 -4 -7 -4 -10 1 -6
4 4 23 -10 42 -30 20 -20 39 -36 44 -34 5 1 9 -3 9 -9 0 -6 38 -48 85 -94 47
-45 82 -85 78 -88 -6 -6 12 -11 30 -8 4 0 7 -3 7 -9 0 -5 51 -61 114 -124 63
-63 111 -117 108 -121 -4 -4 -2 -5 3 -3 15 5 146 -129 150 -153 3 -15 0 -19
-10 -15 -8 3 -14 2 -12 -3 1 -4 -31 -40 -70 -78 -40 -39 -69 -74 -65 -78 4 -5
-1 -5 -10 -2 -10 4 -18 2 -18 -4 0 -16 -177 -189 -184 -181 -4 3 -4 -2 0 -13
4 -11 4 -17 0 -13 -10 8 -434 -414 -428 -426 3 -5 -3 -6 -14 -2 -10 4 -15 4
-12 1 7 -8 -48 -65 -62 -65 -5 0 -7 -7 -3 -16 5 -13 7 -13 14 -2 7 10 9 10 9
0 0 -13 58 -13 66 0 3 5 11 5 17 1 20 -12 107 -12 100 1 -5 8 -3 8 8 0 8 -6
24 -10 37 -8 14 3 21 0 17 -6 -4 -6 2 -7 17 -2 13 5 41 8 63 7 22 -1 45 2 52
7 7 5 13 5 17 0 3 -5 26 -8 51 -7 32 2 43 0 38 -8 -4 -8 -2 -8 9 0 8 7 18 10
21 6 4 -3 13 0 21 6 8 7 17 8 20 3 3 -5 26 -8 51 -7 32 2 43 0 38 -8 -4 -8 -2
-8 9 0 8 7 18 10 21 6 4 -3 13 0 21 6 8 7 17 8 20 3 3 -5 26 -8 51 -7 32 2 43
0 38 -8 -4 -8 -2 -8 9 0 8 7 18 10 21 6 4 -3 13 0 21 6 8 7 17 8 20 3 3 -5 26
-8 51 -7 25 2 42 -1 39 -6 -3 -5 5 -5 18 -1 13 5 55 8 95 7 50 -1 70 2 66 9
-5 7 -2 7 8 0 8 -6 24 -10 37 -8 16 3 21 0 16 -8 -5 -10 -4 -10 6 -1 7 6 18 9
25 7 7 -3 20 5 29 18 9 12 16 19 16 15 0 -4 8 1 18 11 11 9 17 20 16 23 -2 3
8 12 21 19 13 7 22 17 20 21 -3 4 4 10 14 14 11 3 23 15 26 26 4 10 9 18 13
16 10 -5 51 40 44 47 -3 3 2 6 12 6 9 0 15 4 11 9 -3 5 4 12 14 16 11 3 23 15
26 26 4 10 11 17 16 14 5 -4 9 2 9 11 0 10 3 14 7 11 3 -4 13 2 20 13 8 11 19
18 24 15 5 -3 6 1 3 9 -3 9 2 17 15 21 11 3 23 15 26 25 3 11 12 19 18 17 7
-1 11 4 9 11 -1 6 2 12 6 12 5 0 17 7 28 16 10 8 12 13 4 9 -16 -7 0 7 39 34
11 8 18 18 15 23 -3 4 -1 8 4 8 11 0 81 67 76 73 -2 2 7 10 21 17 14 7 25 19
25 27 0 7 6 12 13 11 6 -2 11 2 10 9 -2 6 6 15 17 18 11 4 18 10 15 15 -3 5 4
11 15 15 11 3 19 9 17 13 -1 4 2 7 6 7 5 0 15 11 22 25 7 14 17 25 22 25 4 0
7 3 5 8 -1 4 4 7 11 7 8 0 20 11 27 25 7 13 16 23 19 21 9 -4 40 31 34 38 -4
3 0 6 9 6 8 0 20 11 26 25 10 21 9 25 -3 25 -8 0 -15 6 -15 13 0 13 -40 43
-53 39 -4 -1 -6 1 -6 5 3 19 -2 34 -9 29 -5 -3 -15 6 -22 19 -7 13 -17 22 -22
19 -4 -3 -8 1 -9 8 0 7 -22 31 -49 53 -27 22 -49 47 -49 55 -1 13 -2 13 -11 0
-8 -13 -10 -12 -10 3 0 17 -29 56 -37 50 -2 -2 -2 -2 0 0 1 1 -18 20 -43 42
-65 57 -72 65 -65 65 3 0 0 6 -7 14 -7 8 -15 12 -17 10 -3 -2 -13 8 -23 23
-10 16 -18 25 -18 21 0 -4 -11 4 -25 18 -14 14 -25 29 -25 34 0 6 -7 10 -16
10 -8 0 -13 4 -10 9 3 4 -6 13 -20 20 -14 6 -22 16 -19 21 3 6 3 10 -2 10 -4
0 -34 25 -65 55 -31 30 -55 55 -52 55 3 0 -1 6 -8 14 -7 8 -15 12 -17 10 -4
-4 -15 7 -54 54 -15 19 -27 31 -27 28 0 -2 -13 7 -28 22 -15 15 -27 30 -25 33
2 4 -15 14 -37 23 -48 19 -53 20 -44 4 5 -7 3 -8 -6 -3 -20 12 -200 12 -200 0
0 -7 -3 -7 -8 0 -10 14 -94 16 -85 2 3 -5 1 -7 -4 -4 -21 13 -84 17 -77 5 5
-7 2 -8 -6 -3 -18 11 -399 12 -393 1 4 -5 1 -6 -4 -3 -21 13 -84 17 -77 5 4
-7 3 -8 -4 -4 -20 12 -103 16 -96 4 5 -7 2 -8 -7 -3 -19 12 -193 12 -201 0 -5
-6 -8 -5 -8 3 0 6 -5 12 -11 12 -5 0 -7 -5 -3 -11 5 -8 1 -8 -14 0 -28 15 -31
14 -29 -8z"/>
</g>
</svg>
