<svg width="24" height="24" xmlns="http://www.w3.org/2000/svg">
  <path d="M19.707 7v1.808l.252.043c.906.18 1.628.588 2.165 1.222.586.693.879 1.571.879 2.636H20.16l-.005-.212c-.025-.48-.135-.858-.331-1.133-.225-.314-.544-.47-.959-.47-.37 0-.657.115-.862.348-.204.233-.307.554-.307.963 0 .415.118.744.354.988.235.244.613.476 1.135.698.52.22 1.013.45 1.475.689a5.64 5.64 0 0 1 1.198.811c.337.303.6.656.79 1.06.191.403.286.888.286 1.454 0 .959-.304 1.74-.912 2.346-.608.605-1.436.958-2.484 1.06V23h-1.337v-1.699l-.277-.035c-1.088-.16-1.933-.567-2.535-1.222-.653-.709-.98-1.644-.98-2.804h2.833l.006.207c.028.538.167.955.419 1.252.283.333.685.5 1.207.5.38 0 .68-.113.9-.34.218-.227.327-.54.327-.938 0-.443-.11-.79-.328-1.043-.218-.252-.602-.49-1.152-.714a23.462 23.462 0 0 1-1.522-.681 5.279 5.279 0 0 1-1.202-.799 3.138 3.138 0 0 1-.773-1.05c-.18-.399-.27-.88-.27-1.447 0-.947.32-1.728.96-2.342.638-.613 1.49-.97 2.555-1.072V7h1.337ZM18 1v5h-2V3H3v4h10v10H1V1h17ZM6 13H3v2h3v-2Zm5 0H8v2h3v-2ZM6 9H3v2h3V9Zm5 0H8v2h3V9Z" fill="#fff" fill-rule="evenodd"/>
</svg>
